<?xml version="1.0" encoding="utf-8"?>
<!-- Generator: Adobe Illustrator 25.0.0, SVG Export Plug-In . SVG Version: 6.00 Build 0)  -->
<svg version="1.1" id="Capa_1" xmlns="http://www.w3.org/2000/svg" xmlns:xlink="http://www.w3.org/1999/xlink" x="0px" y="0px"
	 viewBox="0 0 32 32" style="enable-background:new 0 0 32 32;" xml:space="preserve">
<style type="text/css">
	.st0{fill:#FFFFFF;}
</style>
<g id="Capa_11">
</g>
<g id="Capa_2_1_">
	<g id="Capa_11_1_">
	</g>
	<g>
		<g id="_x30_1._Facebook_2_">
			<path id="Icon_2_" class="st0" d="M12.3,18c-0.1,0-2.7,0-3.8,0c-0.6,0-0.8-0.2-0.8-0.8c0-1.6,0-3.1,0-4.8c0-0.6,0.2-0.8,0.8-0.8
				h3.8c0-0.1,0-2.4,0-3.5c0-1.6,0.2-3,1.1-4.4c0.8-1.4,2-2.3,3.5-2.9c0.9-0.3,2-0.5,3-0.5h3.9c0.6,0,0.8,0.2,0.8,0.8v4.4
				c0,0.6-0.2,0.8-0.8,0.8c-1.1,0-2.1,0-3.2,0c-1,0-1.6,0.5-1.6,1.6s0,2.3,0,3.5h4.5c0.6,0,0.8,0.2,0.8,0.8v4.9
				c0,0.6-0.2,0.8-0.8,0.8c-1.4,0-4.4,0-4.5,0v12.8c0,0.7-0.2,0.9-0.9,0.9c-1.6,0-3.3,0-4.9,0c-0.6,0-0.8-0.2-0.8-0.8
				C12.3,26.7,12.3,18.1,12.3,18L12.3,18z"/>
		</g>
	</g>
</g>
</svg>
