<?xml version="1.0" encoding="utf-8"?>
<!-- Generator: Adobe Illustrator 25.0.0, SVG Export Plug-In . SVG Version: 6.00 Build 0)  -->
<svg version="1.1" xmlns="http://www.w3.org/2000/svg" xmlns:xlink="http://www.w3.org/1999/xlink" x="0px" y="0px"
	 viewBox="0 0 32 32" style="enable-background:new 0 0 32 32;" xml:space="preserve">
<style type="text/css">
	.st0{fill:#FFFFFF;}
</style>
<g id="Capa_11">
</g>
<g id="Capa_2">
	<g id="Capa_11_6_">
	</g>
	<path class="st0" d="M26.7,6.1c-2-1-4.2-1.6-6.3-2c-0.2,0-0.2,0-0.2,0c-0.2,0.4-0.6,1-0.8,1.6c-2.4-0.4-4.7-0.4-7.1,0
		c-0.2-0.6-0.4-1-0.8-1.6c-0.2,0-0.2,0-0.2,0c-2.2,0.4-4.3,1-6.3,2c-4,6.1-5.1,12.1-4.5,17.8c2.4,1.8,4.9,3.2,7.7,4
		c0.2,0,0.2,0,0.2,0c0.6-0.8,1.2-1.6,1.6-2.6c0-0.2,0-0.2,0-0.2c-0.8-0.4-1.6-0.8-2.4-1.2v-0.2c0-0.2,0.2-0.2,0.4-0.4
		c0.2,0,0.2,0,0.2,0c5.1,2.4,10.7,2.4,15.6,0c0.2,0,0.2,0,0.2,0c0,0.2,0.2,0.2,0.4,0.4v0.2c-0.8,0.4-1.6,0.8-2.4,1.2v0.2
		c0.4,0.8,1,1.8,1.6,2.6c0.2,0,0.2,0,0.2,0c3-0.8,5.5-2.2,7.9-4C32.2,17.2,30.6,11.3,26.7,6.1z M11.1,20.3c-1.6,0-2.8-1.4-2.8-3.2
		c0-1.8,1.2-3.2,2.8-3.2c1.6,0,2.8,1.4,2.8,3.2C13.8,19,12.7,20.3,11.1,20.3z M21.3,20.3c-1.6,0-2.8-1.4-2.8-3.2
		c0-1.8,1.2-3.2,2.8-3.2c1.6,0,2.8,1.4,2.8,3.2C24.1,19,22.9,20.3,21.3,20.3z"/>
</g>
</svg>
