<?xml version="1.0" encoding="utf-8"?>
<!-- Generator: Adobe Illustrator 25.0.0, SVG Export Plug-In . SVG Version: 6.00 Build 0)  -->
<svg version="1.1" xmlns="http://www.w3.org/2000/svg" xmlns:xlink="http://www.w3.org/1999/xlink" x="0px" y="0px"
	 viewBox="0 0 32 32" style="enable-background:new 0 0 32 32;" xml:space="preserve">
<style type="text/css">
	.st0{fill:#FFFFFF;}
</style>
<g id="Capa_11">
</g>
<g id="Capa_2">
	<g id="Capa_11_6_">
	</g>
	<g>
		<path class="st0" d="M12.7,10.6c-0.7-0.4-1.5,0.1-1.5,0.8v9.2c0,0.8,0.8,1.2,1.5,0.8l7.7-4.6c0.6-0.4,0.6-1.3,0-1.7L12.7,10.6z"/>
		<path class="st0" d="M26.4,4.5c-6.1-0.9-14.6-0.9-20.7,0C3.2,4.9,1.3,6.8,0.8,9.3c-0.8,4.6-0.8,8.7,0,13.4
			c0.4,2.5,2.3,4.4,4.8,4.8c3.1,0.5,6.7,0.7,10.4,0.7c3.7,0,7.3-0.2,10.4-0.7c2.4-0.4,4.4-2.3,4.8-4.8c0.8-4.6,0.8-8.7,0-13.4
			C30.7,6.8,28.8,4.9,26.4,4.5L26.4,4.5z M28.6,22c-0.3,1.6-1.5,2.8-3,3c-5.6,0.8-13.5,0.8-19.2,0c-1.5-0.2-2.7-1.4-3-3
			c-0.7-4.2-0.7-7.8,0-12.1c0.3-1.6,1.5-2.8,3-3c2.8-0.4,6.2-0.6,9.6-0.6c3.4,0,6.8,0.2,9.6,0.6c1.5,0.2,2.7,1.4,3,3
			C29.3,14.2,29.3,17.8,28.6,22L28.6,22z"/>
	</g>
</g>
</svg>
