<?xml version="1.0" encoding="utf-8"?>
<!-- Generator: Adobe Illustrator 25.0.0, SVG Export Plug-In . SVG Version: 6.00 Build 0)  -->
<svg version="1.1" xmlns="http://www.w3.org/2000/svg" xmlns:xlink="http://www.w3.org/1999/xlink" x="0px" y="0px"
	 viewBox="0 0 32 32" style="enable-background:new 0 0 32 32;" xml:space="preserve">
<style type="text/css">
	.st0{fill:#FFFFFF;}
</style>
<g id="Capa_11">
</g>
<g id="Capa_2">
	<g>
		<path class="st0" d="M31.8,4.3c0-2.2-1.8-3.9-3.9-3.9c-1.2,0-2.3,0.6-3,1.4l0,0L0.2,31.7L30.3,7.3l0,0C31.2,6.6,31.8,5.5,31.8,4.3
			z"/>
		<path class="st0" d="M31.6,17.9c0-1.6-1.3-2.9-2.9-2.9c-1,0-1.8,0.5-2.3,1.2l0,0l-9.7,13.4l13.7-9.3c0,0,0,0,0.1,0l0,0l0,0
			C31.1,19.8,31.6,18.9,31.6,17.9z"/>
		<path class="st0" d="M17.1,3.4c0-1.6-1.3-2.9-2.9-2.9c-1,0-1.8,0.5-2.3,1.2l0,0L2.1,15.1l13.7-9.3c0,0,0,0,0.1,0l0,0l0,0
			C16.6,5.3,17.1,4.4,17.1,3.4z"/>
	</g>
</g>
</svg>
