<?xml version="1.0" encoding="utf-8"?>
<!-- Generator: Adobe Illustrator 25.0.0, SVG Export Plug-In . SVG Version: 6.00 Build 0)  -->
<svg version="1.1" xmlns="http://www.w3.org/2000/svg" xmlns:xlink="http://www.w3.org/1999/xlink" x="0px" y="0px"
	 viewBox="0 0 32 32" style="enable-background:new 0 0 32 32;" xml:space="preserve">
<style type="text/css">
	.st0{fill-rule:evenodd;clip-rule:evenodd;fill:#FFFFFF;}
	.st1{fill:#FFFFFF;}
</style>
<g id="Capa_11">
</g>
<g id="Capa_2">
	<g>
		<path class="st0" d="M2.3,3.7L1.1,3.7l0,1.2l0,0.2c0,0.2,0,0.5,0,1.1c0,1.1,0,3.2,0,6.9v0.5L2.5,15c-0.6,0.4-1.1,0.7-1.7,1
			l-0.5,0.3l0,7.9l6.5,6.5l0.4,0c8,0.5,16.1-0.1,23.8-2.7l0.8-0.3v-9.5l-1.7-1.7c0.3-0.3,0.6-0.6,0.8-0.9l0.3-0.3V15
			c0-0.3,0-2,0-3.6l0-3.6L24.6,1l-0.7,0.2C17,3.6,9.6,4.1,2.3,3.7z M24.3,2.3l5.9,5.9c0,0,0,6.1,0,6.8c-0.3,0.3-0.6,0.6-0.8,0.8
			c-0.3,0.3-0.5,0.5-0.8,0.8l2.1,2.2V27c-7.5,2.6-15.5,3.2-23.4,2.7l-5.9-5.9l0-6.8c0.6-0.4,1.3-0.8,1.9-1.2c0.3-0.2,0.7-0.4,1-0.6
			l-2.1-2.1c0-3.9,0-6,0-7.1c0-1,0-1.1,0-1.1c0.4,0,0.8,0,1.1,0.1C10.4,5.2,17.6,4.6,24.3,2.3z"/>
		<path class="st1" d="M27.9,11.2v3.3c-3.7,3.5-7.3,6.6-11,9.3c3.8-0.3,7.6-0.9,11.4-2c0,1.2,0,2.4,0,3.6
			c-5.3,1.5-10.5,2.1-15.8,2.1c-1,0-2,0-3.1-0.1v-3.3c3.7-2.3,7.3-4.9,11-7.9c-2.6,0.3-5.3,0.5-7.9,0.5c-0.8,0-1.5,0-2.3,0
			c0-1.2,0-2.4,0-3.6c0.7,0,1.5,0,2.2,0C17.7,13.2,22.8,12.6,27.9,11.2L27.9,11.2z"/>
	</g>
</g>
</svg>
