<?xml version="1.0" encoding="utf-8"?>
<!-- Generator: Adobe Illustrator 25.0.0, SVG Export Plug-In . SVG Version: 6.00 Build 0)  -->
<svg version="1.1" xmlns="http://www.w3.org/2000/svg" xmlns:xlink="http://www.w3.org/1999/xlink" x="0px" y="0px"
	 viewBox="0 0 518.2 101.7" style="enable-background:new 0 0 518.2 101.7;" xml:space="preserve">
<style type="text/css">
	.st0{fill:#FFFFFF;}
</style>
<g id="Capa_11">
</g>
<g id="Capa_2">
	<g>
		<g>
			<path class="st0" d="M10.1,23.5l12.8-12.6l35.9,35.6c7.4,7.3,14.9,4,17.8,1.3l24-23.1l-23.3-24L52.8,24.8l5.1,5.2l19.3-19.1
				l13.1,13.5l-18.7,18c-0.8,0.7-3.7,2.8-7.7-1.2l-41-40.6l-23,22.8l41,41.8c0,0,1.9,2,1.9,4.1c0,1-0.5,2-1.6,3.1L23.2,90.7
				l-13-13.6l17.5-17.3l-5.1-5.2L-0.1,77l23.2,24.1l23.3-23.7c2.5-2.4,3.7-5.2,3.7-8.2c0-5.2-3.9-9.1-4-9.2L10.1,23.5z"/>
			<path class="st0" d="M52.1,76.8l24,24l24-24l-24-24L52.1,76.8z M76.1,90.5L62.4,76.8l13.7-13.7l13.7,13.7L76.1,90.5z"/>
		</g>
		<polygon class="st0" points="178.6,81.1 167.4,81.1 145.3,53.9 133.8,65.5 133.8,81.1 125.1,81.1 125.1,20.6 133.8,20.6 
			133.8,54.1 166.2,20.6 178.3,20.6 151.4,47.7 		"/>
		<rect x="229.4" y="20.6" class="st0" width="8.7" height="60.5"/>
		<rect x="298" y="20.6" class="st0" width="8.7" height="60.5"/>
		<polygon class="st0" points="410.7,81.1 365.9,81.1 365.9,20.6 410.3,20.6 410.3,28.8 374.6,28.8 374.6,46.5 406.7,46.5 
			406.7,54.8 374.6,54.8 374.6,72.8 410.7,72.8 		"/>
		<polygon class="st0" points="518.4,81.1 507.7,81.1 488.9,56.7 470.1,81.1 459.5,81.1 483.6,50.3 460.3,20.6 471,20.6 489,43.8 
			507,20.6 517.6,20.6 494.4,50.2 		"/>
	</g>
</g>
</svg>
