<?xml version="1.0" encoding="utf-8"?>
<!-- Generator: Adobe Illustrator 25.0.0, SVG Export Plug-In . SVG Version: 6.00 Build 0)  -->
<svg version="1.1" id="Capa_1" xmlns="http://www.w3.org/2000/svg" xmlns:xlink="http://www.w3.org/1999/xlink" x="0px" y="0px"
	 viewBox="0 0 32 32" style="enable-background:new 0 0 32 32;" xml:space="preserve">
<style type="text/css">
	.st0{fill:#FFFFFF;}
</style>
<g id="Capa_11">
</g>
<g id="Capa_2_1_">
	<g id="Capa_11_1_">
	</g>
	<g>
		<g>
			<path class="st0" d="M29.7,8.2c-1.7,0-3.5-0.6-4.8-1.6c-1.5-1.2-2.7-2.8-3-4.8c0-0.5-0.1-1-0.1-1.5h-5.1v13.9v7.7
				c0,2.1-1.3,3.8-3.1,4.4c-0.6,0.2-1.2,0.2-1.7,0.2c-0.8,0-1.5-0.2-2.1-0.7c-1.3-0.8-2.2-2.2-2.3-4c0-2.6,2.1-4.6,4.6-4.6
				c0.5,0,1,0.1,1.5,0.2v-3.8v-1.4c-0.5-0.1-0.9-0.1-1.5-0.1c-2.8,0-5.5,1.2-7.4,3.3C3.2,17,2.3,19,2.2,21.2
				c-0.1,2.9,0.9,5.7,2.9,7.7c0.3,0.2,0.6,0.6,0.9,0.8c1.7,1.3,3.8,2.1,6,2.1c0.5,0,1,0,1.5-0.1c2.1-0.3,4-1.3,5.5-2.8
				c1.9-1.9,2.9-4.3,2.9-6.9V10.5c0.9,0.7,1.9,1.3,2.9,1.6c1.6,0.7,3.3,1,5.1,1V9.5L29.7,8.2C29.8,8.2,29.7,8.2,29.7,8.2L29.7,8.2z"
				/>
		</g>
	</g>
</g>
</svg>
